# xmcd
#
# Track frame offsets:
# 150
# 18819
# 31502
# 47344
# 60192
# 71915
# 84234
# 103588
# 116248
# 126941
# 138063
# 148871
#
# Disc length: 2201 seconds
#
#
# Revision: 0
# Processed by: cddbd v1.5PL3 Copyright (c) Steve Scherf et al.
# Submitted via: FreeRIP 2.53 
#
DISCID=9508970c
DTITLE=Anderson, Bill - 12 Classics
DYEAR=1900
DGENRE=
TTITLE0=The Tips Of My Fingers
TTITLE1=Po Folks
TTITLE2=Mama Sang A Song
TTITLE3=Still
TTITLE4=Three A.M.
TTITLE5=Bright Lights And Country Music
TTITLE6=Golden Guitar
TTITLE7=I Love You Drops
TTITLE8=I Get The Fever
TTITLE9=Wild Weekend
TTITLE10=Quits
TTITLE11=The Corner Of My Life
EXTD=
EXTT0=
EXTT1=
EXTT2=
EXTT3=
EXTT4=
EXTT5=
EXTT6=
EXTT7=
EXTT8=
EXTT9=
EXTT10=
EXTT11=
PLAYORDER=
